<svg xmlns="http://www.w3.org/2000/svg" width="1200" height="630" viewBox="0 0 1200 630" role="img" aria-labelledby="title desc">
  <title id="title">BlueBlack Digital Store Guide</title>
  <desc id="desc">BlueBlack Pen Shop digital store guide with Pen Buffet, store information and service tools.</desc>
  <defs>
    <linearGradient id="bg" x1="0" y1="0" x2="1" y2="1"><stop stop-color="#07172f"/><stop offset=".68" stop-color="#102a49"/><stop offset="1" stop-color="#173b5f"/></linearGradient>
    <filter id="shadow" x="-20%" y="-20%" width="140%" height="160%"><feDropShadow dx="0" dy="18" stdDeviation="16" flood-color="#020712" flood-opacity=".34"/></filter>
  </defs>
  <rect width="1200" height="630" fill="url(#bg)"/>
  <circle cx="1080" cy="70" r="240" fill="#355c84" opacity=".2"/>
  <circle cx="60" cy="630" r="270" fill="#8e672a" opacity=".12"/>
  <g transform="translate(72 66)">
    <rect width="50" height="50" rx="15" fill="#fff"/><text x="25" y="33" text-anchor="middle" fill="#10233f" font-family="Arial,sans-serif" font-size="18" font-weight="800">BB</text>
    <text x="70" y="32" fill="#d7bd91" font-family="Arial,sans-serif" font-size="23" font-weight="700" letter-spacing="4">BLUEBLACK PEN SHOP</text>
    <text x="0" y="126" fill="#fff" font-family="Arial,sans-serif" font-size="62" font-weight="800">Digital Store Guide</text>
    <text x="0" y="173" fill="#c8d4e1" font-family="Arial,sans-serif" font-size="25">매장 안내와 상담 도구를 한곳에서</text>
  </g>
  <g transform="translate(72 300)" filter="url(#shadow)">
    <g><rect width="244" height="174" rx="24" fill="#fff"/><rect x="22" y="22" width="52" height="52" rx="16" fill="#a77a3d"/><text x="48" y="58" text-anchor="middle" fill="#fff" font-family="Arial,sans-serif" font-size="26">✒</text><text x="22" y="108" fill="#10233f" font-family="Arial,sans-serif" font-size="24" font-weight="800">Pen Buffet</text><text x="22" y="140" fill="#68778a" font-family="Arial,sans-serif" font-size="16">3D color customizer</text></g>
    <g transform="translate(264)"><rect width="244" height="174" rx="24" fill="#fff"/><rect x="22" y="22" width="52" height="52" rx="16" fill="#10233f"/><text x="48" y="58" text-anchor="middle" fill="#fff" font-family="Arial,sans-serif" font-size="26">⌂</text><text x="22" y="108" fill="#10233f" font-family="Arial,sans-serif" font-size="24" font-weight="800">Store Guide</text><text x="22" y="140" fill="#68778a" font-family="Arial,sans-serif" font-size="16">Location &amp; hours</text></g>
    <g transform="translate(528)"><rect width="244" height="174" rx="24" fill="#fff"/><rect x="22" y="22" width="52" height="52" rx="16" fill="#10233f"/><text x="48" y="58" text-anchor="middle" fill="#fff" font-family="Arial,sans-serif" font-size="26">✓</text><text x="22" y="108" fill="#10233f" font-family="Arial,sans-serif" font-size="24" font-weight="800">Service</text><text x="22" y="140" fill="#68778a" font-family="Arial,sans-serif" font-size="16">A/S &amp; purchase info</text></g>
    <g transform="translate(792)"><rect width="244" height="174" rx="24" fill="#fff" opacity=".9"/><rect x="22" y="22" width="52" height="52" rx="16" fill="#6b7786"/><text x="48" y="58" text-anchor="middle" fill="#fff" font-family="Arial,sans-serif" font-size="26">◉</text><text x="22" y="108" fill="#10233f" font-family="Arial,sans-serif" font-size="24" font-weight="800">Ink Price</text><text x="22" y="140" fill="#68778a" font-family="Arial,sans-serif" font-size="16">Coming soon</text></g>
  </g>
  <text x="72" y="566" fill="#c8d4e1" font-family="Arial,sans-serif" font-size="19">한국어 · English · 日本語 · 中文</text>
</svg>